<?xml version="1.0" encoding="UTF-8" standalone="no"?>
<!DOCTYPE svg PUBLIC "-//W3C//DTD SVG 1.1//EN"
 "http://www.w3.org/Graphics/SVG/1.1/DTD/svg11.dtd">
<!-- Generated by graphviz version 15.1.0 (20260618.0150)
 -->
<!-- Pages: 1 -->
<svg width="1577pt" height="265pt"
 viewBox="0.00 0.00 1577.00 265.00" xmlns="http://www.w3.org/2000/svg" xmlns:xlink="http://www.w3.org/1999/xlink">
<g id="graph0" class="graph" transform="scale(1 1) rotate(0) translate(4 261)">
<polygon fill="white" stroke="none" points="-4,4 -4,-261 1573,-261 1573,4 -4,4"/>
<!-- node_600001b185d0 -->
<g id="node1" class="node">
<title>node_600001b185d0</title>
<polygon fill="none" stroke="black" points="1400.5,-109.5 1400.5,-145.5 1569,-145.5 1569,-109.5 1400.5,-109.5"/>
<text xml:space="preserve" text-anchor="middle" x="1442.25" y="-122.7" font-family="Times,serif" font-size="14.00">data: 1.1336</text>
<polyline fill="none" stroke="black" points="1484,-110 1484,-145.5"/>
<text xml:space="preserve" text-anchor="middle" x="1526.5" y="-122.7" font-family="Times,serif" font-size="14.00">grad: 1.0000</text>
</g>
<!-- node_600001b185d0_op -->
<g id="node2" class="node">
<title>node_600001b185d0_op</title>
<ellipse fill="none" stroke="black" cx="1346.5" cy="-127.5" rx="18" ry="18"/>
<text xml:space="preserve" text-anchor="middle" x="1346.5" y="-122.45" font-family="Times,serif" font-size="14.00">+</text>
</g>
<!-- node_600001b185d0_op&#45;&gt;node_600001b185d0 -->
<g id="edge1" class="edge">
<title>node_600001b185d0_op&#45;&gt;node_600001b185d0</title>
<path fill="none" stroke="black" d="M1364.76,-127.5C1371.48,-127.5 1379.73,-127.5 1388.73,-127.5"/>
<polygon fill="black" stroke="black" points="1388.51,-131 1398.51,-127.5 1388.51,-124 1388.51,-131"/>
</g>
<!-- node_600001b18590 -->
<g id="node3" class="node">
<title>node_600001b18590</title>
<polygon fill="none" stroke="black" points="1124,-137.5 1124,-173.5 1292.5,-173.5 1292.5,-137.5 1124,-137.5"/>
<text xml:space="preserve" text-anchor="middle" x="1165.75" y="-150.7" font-family="Times,serif" font-size="14.00">data: 0.0000</text>
<polyline fill="none" stroke="black" points="1207.5,-138 1207.5,-173.5"/>
<text xml:space="preserve" text-anchor="middle" x="1250" y="-150.7" font-family="Times,serif" font-size="14.00">grad: 1.0000</text>
</g>
<!-- node_600001b18590&#45;&gt;node_600001b185d0_op -->
<g id="edge2" class="edge">
<title>node_600001b18590&#45;&gt;node_600001b185d0_op</title>
<path fill="none" stroke="black" d="M1292.82,-138.33C1301.54,-136.53 1309.9,-134.82 1317.29,-133.3"/>
<polygon fill="black" stroke="black" points="1317.78,-136.77 1326.88,-131.33 1316.38,-129.91 1317.78,-136.77"/>
</g>
<!-- node_600001b18550 -->
<g id="node4" class="node">
<title>node_600001b18550</title>
<polygon fill="none" stroke="black" points="1124,-82.5 1124,-118.5 1292.5,-118.5 1292.5,-82.5 1124,-82.5"/>
<text xml:space="preserve" text-anchor="middle" x="1165.75" y="-95.7" font-family="Times,serif" font-size="14.00">data: 1.1336</text>
<polyline fill="none" stroke="black" points="1207.5,-83 1207.5,-118.5"/>
<text xml:space="preserve" text-anchor="middle" x="1250" y="-95.7" font-family="Times,serif" font-size="14.00">grad: 1.0000</text>
</g>
<!-- node_600001b18550&#45;&gt;node_600001b185d0_op -->
<g id="edge3" class="edge">
<title>node_600001b18550&#45;&gt;node_600001b185d0_op</title>
<path fill="none" stroke="black" d="M1292.82,-117.06C1301.54,-118.79 1309.9,-120.44 1317.29,-121.91"/>
<polygon fill="black" stroke="black" points="1316.38,-125.3 1326.87,-123.81 1317.74,-118.43 1316.38,-125.3"/>
</g>
<!-- node_600001b18550_op -->
<g id="node5" class="node">
<title>node_600001b18550_op</title>
<ellipse fill="none" stroke="black" cx="1070" cy="-100.5" rx="18" ry="18"/>
<text xml:space="preserve" text-anchor="middle" x="1070" y="-95.45" font-family="Times,serif" font-size="14.00">+</text>
</g>
<!-- node_600001b18550_op&#45;&gt;node_600001b18550 -->
<g id="edge4" class="edge">
<title>node_600001b18550_op&#45;&gt;node_600001b18550</title>
<path fill="none" stroke="black" d="M1088.26,-100.5C1094.98,-100.5 1103.23,-100.5 1112.23,-100.5"/>
<polygon fill="black" stroke="black" points="1112.01,-104 1122.01,-100.5 1112.01,-97 1112.01,-104"/>
</g>
<!-- node_600001b184d0 -->
<g id="node6" class="node">
<title>node_600001b184d0</title>
<polygon fill="none" stroke="black" points="843,-110.5 843,-146.5 1016,-146.5 1016,-110.5 843,-110.5"/>
<text xml:space="preserve" text-anchor="middle" x="887" y="-123.7" font-family="Times,serif" font-size="14.00">data: &#45;2.8387</text>
<polyline fill="none" stroke="black" points="931,-111 931,-146.5"/>
<text xml:space="preserve" text-anchor="middle" x="973.5" y="-123.7" font-family="Times,serif" font-size="14.00">grad: 1.0000</text>
</g>
<!-- node_600001b184d0&#45;&gt;node_600001b18550_op -->
<g id="edge5" class="edge">
<title>node_600001b184d0&#45;&gt;node_600001b18550_op</title>
<path fill="none" stroke="black" d="M1016.24,-111.17C1025,-109.4 1033.38,-107.7 1040.79,-106.2"/>
<polygon fill="black" stroke="black" points="1041.28,-109.68 1050.38,-104.26 1039.89,-102.81 1041.28,-109.68"/>
</g>
<!-- node_600001b18510 -->
<g id="node7" class="node">
<title>node_600001b18510</title>
<polygon fill="none" stroke="black" points="845.25,-55.5 845.25,-91.5 1013.75,-91.5 1013.75,-55.5 845.25,-55.5"/>
<text xml:space="preserve" text-anchor="middle" x="887" y="-68.7" font-family="Times,serif" font-size="14.00">data: 3.9723</text>
<polyline fill="none" stroke="black" points="928.75,-56 928.75,-91.5"/>
<text xml:space="preserve" text-anchor="middle" x="971.25" y="-68.7" font-family="Times,serif" font-size="14.00">grad: 1.0000</text>
</g>
<!-- node_600001b18510&#45;&gt;node_600001b18550_op -->
<g id="edge6" class="edge">
<title>node_600001b18510&#45;&gt;node_600001b18550_op</title>
<path fill="none" stroke="black" d="M1013.86,-89.75C1023.45,-91.62 1032.66,-93.42 1040.72,-94.99"/>
<polygon fill="black" stroke="black" points="1039.98,-98.41 1050.47,-96.89 1041.32,-91.54 1039.98,-98.41"/>
</g>
<!-- node_600001b18510_op -->
<g id="node8" class="node">
<title>node_600001b18510_op</title>
<ellipse fill="none" stroke="black" cx="789" cy="-73.5" rx="18" ry="18"/>
<text xml:space="preserve" text-anchor="middle" x="789" y="-68.45" font-family="Times,serif" font-size="14.00">*</text>
</g>
<!-- node_600001b18510_op&#45;&gt;node_600001b18510 -->
<g id="edge7" class="edge">
<title>node_600001b18510_op&#45;&gt;node_600001b18510</title>
<path fill="none" stroke="black" d="M807.26,-73.5C814.53,-73.5 823.6,-73.5 833.49,-73.5"/>
<polygon fill="black" stroke="black" points="833.44,-77 843.44,-73.5 833.44,-70 833.44,-77"/>
</g>
<!-- node_600001b18390 -->
<g id="node9" class="node">
<title>node_600001b18390</title>
<polygon fill="none" stroke="black" points="564.25,-55.5 564.25,-91.5 732.75,-91.5 732.75,-55.5 564.25,-55.5"/>
<text xml:space="preserve" text-anchor="middle" x="606" y="-68.7" font-family="Times,serif" font-size="14.00">data: 0.7945</text>
<polyline fill="none" stroke="black" points="647.75,-56 647.75,-91.5"/>
<text xml:space="preserve" text-anchor="middle" x="690.25" y="-68.7" font-family="Times,serif" font-size="14.00">grad: 5.0000</text>
</g>
<!-- node_600001b18390&#45;&gt;node_600001b18510_op -->
<g id="edge8" class="edge">
<title>node_600001b18390&#45;&gt;node_600001b18510_op</title>
<path fill="none" stroke="black" d="M732.86,-73.5C742.45,-73.5 751.66,-73.5 759.72,-73.5"/>
<polygon fill="black" stroke="black" points="759.44,-77 769.44,-73.5 759.44,-70 759.44,-77"/>
</g>
<!-- node_600001b18290 -->
<g id="node10" class="node">
<title>node_600001b18290</title>
<polygon fill="none" stroke="black" points="564.25,-0.5 564.25,-36.5 732.75,-36.5 732.75,-0.5 564.25,-0.5"/>
<text xml:space="preserve" text-anchor="middle" x="606" y="-13.7" font-family="Times,serif" font-size="14.00">data: 5.0000</text>
<polyline fill="none" stroke="black" points="647.75,-1 647.75,-36.5"/>
<text xml:space="preserve" text-anchor="middle" x="690.25" y="-13.7" font-family="Times,serif" font-size="14.00">grad: 0.7945</text>
</g>
<!-- node_600001b18290&#45;&gt;node_600001b18510_op -->
<g id="edge9" class="edge">
<title>node_600001b18290&#45;&gt;node_600001b18510_op</title>
<path fill="none" stroke="black" d="M709.73,-36.92C718.29,-39.92 726.92,-43.14 735,-46.5 744.36,-50.39 754.32,-55.26 763.06,-59.79"/>
<polygon fill="black" stroke="black" points="761.18,-62.75 771.65,-64.35 764.46,-56.57 761.18,-62.75"/>
</g>
<!-- node_600001b184d0_op -->
<g id="node11" class="node">
<title>node_600001b184d0_op</title>
<ellipse fill="none" stroke="black" cx="789" cy="-128.5" rx="18" ry="18"/>
<text xml:space="preserve" text-anchor="middle" x="789" y="-123.45" font-family="Times,serif" font-size="14.00">+</text>
</g>
<!-- node_600001b184d0_op&#45;&gt;node_600001b184d0 -->
<g id="edge10" class="edge">
<title>node_600001b184d0_op&#45;&gt;node_600001b184d0</title>
<path fill="none" stroke="black" d="M807.26,-128.5C814.01,-128.5 822.32,-128.5 831.4,-128.5"/>
<polygon fill="black" stroke="black" points="831.28,-132 841.28,-128.5 831.28,-125 831.28,-132"/>
</g>
<!-- node_600001b18450 -->
<g id="node12" class="node">
<title>node_600001b18450</title>
<polygon fill="none" stroke="black" points="562,-165.5 562,-201.5 735,-201.5 735,-165.5 562,-165.5"/>
<text xml:space="preserve" text-anchor="middle" x="606" y="-178.7" font-family="Times,serif" font-size="14.00">data: &#45;2.0829</text>
<polyline fill="none" stroke="black" points="650,-166 650,-201.5"/>
<text xml:space="preserve" text-anchor="middle" x="692.5" y="-178.7" font-family="Times,serif" font-size="14.00">grad: 1.0000</text>
</g>
<!-- node_600001b18450&#45;&gt;node_600001b184d0_op -->
<g id="edge11" class="edge">
<title>node_600001b18450&#45;&gt;node_600001b184d0_op</title>
<path fill="none" stroke="black" d="M712.54,-165.02C720.18,-162.36 727.82,-159.5 735,-156.5 744.42,-152.56 754.4,-147.53 763.14,-142.82"/>
<polygon fill="black" stroke="black" points="764.67,-145.97 771.72,-138.07 761.28,-139.85 764.67,-145.97"/>
</g>
<!-- node_600001b18490 -->
<g id="node13" class="node">
<title>node_600001b18490</title>
<polygon fill="none" stroke="black" points="562,-110.5 562,-146.5 735,-146.5 735,-110.5 562,-110.5"/>
<text xml:space="preserve" text-anchor="middle" x="606" y="-123.7" font-family="Times,serif" font-size="14.00">data: &#45;0.7558</text>
<polyline fill="none" stroke="black" points="650,-111 650,-146.5"/>
<text xml:space="preserve" text-anchor="middle" x="692.5" y="-123.7" font-family="Times,serif" font-size="14.00">grad: 1.0000</text>
</g>
<!-- node_600001b18490&#45;&gt;node_600001b184d0_op -->
<g id="edge12" class="edge">
<title>node_600001b18490&#45;&gt;node_600001b184d0_op</title>
<path fill="none" stroke="black" d="M735.24,-128.5C743.89,-128.5 752.18,-128.5 759.52,-128.5"/>
<polygon fill="black" stroke="black" points="759.35,-132 769.35,-128.5 759.35,-125 759.35,-132"/>
</g>
<!-- node_600001b18490_op -->
<g id="node14" class="node">
<title>node_600001b18490_op</title>
<ellipse fill="none" stroke="black" cx="508" cy="-128.5" rx="18" ry="18"/>
<text xml:space="preserve" text-anchor="middle" x="508" y="-123.45" font-family="Times,serif" font-size="14.00">*</text>
</g>
<!-- node_600001b18490_op&#45;&gt;node_600001b18490 -->
<g id="edge13" class="edge">
<title>node_600001b18490_op&#45;&gt;node_600001b18490</title>
<path fill="none" stroke="black" d="M526.26,-128.5C533.01,-128.5 541.32,-128.5 550.4,-128.5"/>
<polygon fill="black" stroke="black" points="550.28,-132 560.28,-128.5 550.28,-125 550.28,-132"/>
</g>
<!-- node_600001b18350 -->
<g id="node15" class="node">
<title>node_600001b18350</title>
<polygon fill="none" stroke="black" points="281,-110.5 281,-146.5 454,-146.5 454,-110.5 281,-110.5"/>
<text xml:space="preserve" text-anchor="middle" x="322.75" y="-123.7" font-family="Times,serif" font-size="14.00">data: 0.1512</text>
<polyline fill="none" stroke="black" points="364.5,-111 364.5,-146.5"/>
<text xml:space="preserve" text-anchor="middle" x="409.25" y="-123.7" font-family="Times,serif" font-size="14.00">grad: &#45;5.0000</text>
</g>
<!-- node_600001b18350&#45;&gt;node_600001b18490_op -->
<g id="edge14" class="edge">
<title>node_600001b18350&#45;&gt;node_600001b18490_op</title>
<path fill="none" stroke="black" d="M454.24,-128.5C462.89,-128.5 471.18,-128.5 478.52,-128.5"/>
<polygon fill="black" stroke="black" points="478.35,-132 488.35,-128.5 478.35,-125 478.35,-132"/>
</g>
<!-- node_600001b18250 -->
<g id="node16" class="node">
<title>node_600001b18250</title>
<polygon fill="none" stroke="black" points="281,-55.5 281,-91.5 454,-91.5 454,-55.5 281,-55.5"/>
<text xml:space="preserve" text-anchor="middle" x="325" y="-68.7" font-family="Times,serif" font-size="14.00">data: &#45;5.0000</text>
<polyline fill="none" stroke="black" points="369,-56 369,-91.5"/>
<text xml:space="preserve" text-anchor="middle" x="411.5" y="-68.7" font-family="Times,serif" font-size="14.00">grad: 0.1512</text>
</g>
<!-- node_600001b18250&#45;&gt;node_600001b18490_op -->
<g id="edge15" class="edge">
<title>node_600001b18250&#45;&gt;node_600001b18490_op</title>
<path fill="none" stroke="black" d="M428.73,-91.92C437.29,-94.92 445.92,-98.14 454,-101.5 463.36,-105.39 473.32,-110.26 482.06,-114.79"/>
<polygon fill="black" stroke="black" points="480.18,-117.75 490.65,-119.35 483.46,-111.57 480.18,-117.75"/>
</g>
<!-- node_600001b18450_op -->
<g id="node17" class="node">
<title>node_600001b18450_op</title>
<ellipse fill="none" stroke="black" cx="508" cy="-183.5" rx="18" ry="18"/>
<text xml:space="preserve" text-anchor="middle" x="508" y="-178.45" font-family="Times,serif" font-size="14.00">+</text>
</g>
<!-- node_600001b18450_op&#45;&gt;node_600001b18450 -->
<g id="edge16" class="edge">
<title>node_600001b18450_op&#45;&gt;node_600001b18450</title>
<path fill="none" stroke="black" d="M526.26,-183.5C533.01,-183.5 541.32,-183.5 550.4,-183.5"/>
<polygon fill="black" stroke="black" points="550.28,-187 560.28,-183.5 550.28,-180 550.28,-187"/>
</g>
<!-- node_600001b183d0 -->
<g id="node18" class="node">
<title>node_600001b183d0</title>
<polygon fill="none" stroke="black" points="283.25,-220.5 283.25,-256.5 451.75,-256.5 451.75,-220.5 283.25,-220.5"/>
<text xml:space="preserve" text-anchor="middle" x="325" y="-233.7" font-family="Times,serif" font-size="14.00">data: 0.7444</text>
<polyline fill="none" stroke="black" points="366.75,-221 366.75,-256.5"/>
<text xml:space="preserve" text-anchor="middle" x="409.25" y="-233.7" font-family="Times,serif" font-size="14.00">grad: 1.0000</text>
</g>
<!-- node_600001b183d0&#45;&gt;node_600001b18450_op -->
<g id="edge17" class="edge">
<title>node_600001b183d0&#45;&gt;node_600001b18450_op</title>
<path fill="none" stroke="black" d="M431.54,-220.02C439.18,-217.36 446.82,-214.5 454,-211.5 463.42,-207.56 473.4,-202.53 482.14,-197.82"/>
<polygon fill="black" stroke="black" points="483.67,-200.97 490.72,-193.07 480.28,-194.85 483.67,-200.97"/>
</g>
<!-- node_600001b18410 -->
<g id="node19" class="node">
<title>node_600001b18410</title>
<polygon fill="none" stroke="black" points="281,-165.5 281,-201.5 454,-201.5 454,-165.5 281,-165.5"/>
<text xml:space="preserve" text-anchor="middle" x="325" y="-178.7" font-family="Times,serif" font-size="14.00">data: &#45;2.8273</text>
<polyline fill="none" stroke="black" points="369,-166 369,-201.5"/>
<text xml:space="preserve" text-anchor="middle" x="411.5" y="-178.7" font-family="Times,serif" font-size="14.00">grad: 1.0000</text>
</g>
<!-- node_600001b18410&#45;&gt;node_600001b18450_op -->
<g id="edge18" class="edge">
<title>node_600001b18410&#45;&gt;node_600001b18450_op</title>
<path fill="none" stroke="black" d="M454.24,-183.5C462.89,-183.5 471.18,-183.5 478.52,-183.5"/>
<polygon fill="black" stroke="black" points="478.35,-187 488.35,-183.5 478.35,-180 478.35,-187"/>
</g>
<!-- node_600001b18410_op -->
<g id="node20" class="node">
<title>node_600001b18410_op</title>
<ellipse fill="none" stroke="black" cx="227" cy="-183.5" rx="18" ry="18"/>
<text xml:space="preserve" text-anchor="middle" x="227" y="-178.45" font-family="Times,serif" font-size="14.00">*</text>
</g>
<!-- node_600001b18410_op&#45;&gt;node_600001b18410 -->
<g id="edge19" class="edge">
<title>node_600001b18410_op&#45;&gt;node_600001b18410</title>
<path fill="none" stroke="black" d="M245.26,-183.5C252.01,-183.5 260.32,-183.5 269.4,-183.5"/>
<polygon fill="black" stroke="black" points="269.28,-187 279.28,-183.5 269.28,-180 269.28,-187"/>
</g>
<!-- node_600001b18310 -->
<g id="node21" class="node">
<title>node_600001b18310</title>
<polygon fill="none" stroke="black" points="0,-193.5 0,-229.5 173,-229.5 173,-193.5 0,-193.5"/>
<text xml:space="preserve" text-anchor="middle" x="41.75" y="-206.7" font-family="Times,serif" font-size="14.00">data: 0.5655</text>
<polyline fill="none" stroke="black" points="83.5,-194 83.5,-229.5"/>
<text xml:space="preserve" text-anchor="middle" x="128.25" y="-206.7" font-family="Times,serif" font-size="14.00">grad: &#45;5.0000</text>
</g>
<!-- node_600001b18310&#45;&gt;node_600001b18410_op -->
<g id="edge20" class="edge">
<title>node_600001b18310&#45;&gt;node_600001b18410_op</title>
<path fill="none" stroke="black" d="M173.24,-194.17C182,-192.4 190.38,-190.7 197.79,-189.2"/>
<polygon fill="black" stroke="black" points="198.28,-192.68 207.38,-187.26 196.89,-185.81 198.28,-192.68"/>
</g>
<!-- node_600001b18210 -->
<g id="node22" class="node">
<title>node_600001b18210</title>
<polygon fill="none" stroke="black" points="0,-138.5 0,-174.5 173,-174.5 173,-138.5 0,-138.5"/>
<text xml:space="preserve" text-anchor="middle" x="44" y="-151.7" font-family="Times,serif" font-size="14.00">data: &#45;5.0000</text>
<polyline fill="none" stroke="black" points="88,-139 88,-174.5"/>
<text xml:space="preserve" text-anchor="middle" x="130.5" y="-151.7" font-family="Times,serif" font-size="14.00">grad: 0.5655</text>
</g>
<!-- node_600001b18210&#45;&gt;node_600001b18410_op -->
<g id="edge21" class="edge">
<title>node_600001b18210&#45;&gt;node_600001b18410_op</title>
<path fill="none" stroke="black" d="M173.24,-173.22C182,-174.92 190.38,-176.56 197.79,-178"/>
<polygon fill="black" stroke="black" points="196.9,-181.39 207.38,-179.87 198.24,-174.52 196.9,-181.39"/>
</g>
</g>
</svg>
