<?xml version="1.0" encoding="UTF-8" standalone="no"?>
<!DOCTYPE svg PUBLIC "-//W3C//DTD SVG 1.1//EN"
 "http://www.w3.org/Graphics/SVG/1.1/DTD/svg11.dtd">
<!-- Generated by graphviz version 14.1.5 (0)
 -->
<!-- Pages: 1 -->
<svg width="2152pt" height="265pt"
 viewBox="0.00 0.00 2152.00 265.00" xmlns="http://www.w3.org/2000/svg" xmlns:xlink="http://www.w3.org/1999/xlink">
<g id="graph0" class="graph" transform="scale(1 1) rotate(0) translate(4 261)">
<polygon fill="white" stroke="none" points="-4,4 -4,-261 2147.88,-261 2147.88,4 -4,4"/>
<!-- node_55a8b98bb6d0 -->
<g id="node1" class="node">
<title>node_55a8b98bb6d0</title>
<polygon fill="none" stroke="black" points="1975.38,-136.5 1975.38,-172.5 2143.88,-172.5 2143.88,-136.5 1975.38,-136.5"/>
<text xml:space="preserve" text-anchor="middle" x="2017.13" y="-149.7" font-family="Times,serif" font-size="14.00">data: 3.8039</text>
<polyline fill="none" stroke="black" points="2058.88,-137 2058.88,-172.5"/>
<text xml:space="preserve" text-anchor="middle" x="2101.38" y="-149.7" font-family="Times,serif" font-size="14.00">grad: 1.0000</text>
</g>
<!-- node_55a8b98bb6d0_op -->
<g id="node2" class="node">
<title>node_55a8b98bb6d0_op</title>
<ellipse fill="none" stroke="black" cx="1921.38" cy="-154.5" rx="18" ry="18"/>
<text xml:space="preserve" text-anchor="middle" x="1921.38" y="-149.45" font-family="Times,serif" font-size="14.00">+</text>
</g>
<!-- node_55a8b98bb6d0_op&#45;&gt;node_55a8b98bb6d0 -->
<g id="edge1" class="edge">
<title>node_55a8b98bb6d0_op&#45;&gt;node_55a8b98bb6d0</title>
<path fill="none" stroke="black" d="M1939.63,-154.5C1946.35,-154.5 1954.61,-154.5 1963.61,-154.5"/>
<polygon fill="black" stroke="black" points="1963.39,-158 1973.39,-154.5 1963.39,-151 1963.39,-158"/>
</g>
<!-- node_55a8b98bb560 -->
<g id="node3" class="node">
<title>node_55a8b98bb560</title>
<polygon fill="none" stroke="black" points="1698.88,-164.5 1698.88,-200.5 1867.38,-200.5 1867.38,-164.5 1698.88,-164.5"/>
<text xml:space="preserve" text-anchor="middle" x="1740.63" y="-177.7" font-family="Times,serif" font-size="14.00">data: 0.3120</text>
<polyline fill="none" stroke="black" points="1782.38,-165 1782.38,-200.5"/>
<text xml:space="preserve" text-anchor="middle" x="1824.88" y="-177.7" font-family="Times,serif" font-size="14.00">grad: 1.0000</text>
</g>
<!-- node_55a8b98bb560&#45;&gt;node_55a8b98bb6d0_op -->
<g id="edge2" class="edge">
<title>node_55a8b98bb560&#45;&gt;node_55a8b98bb6d0_op</title>
<path fill="none" stroke="black" d="M1867.7,-165.33C1876.41,-163.53 1884.77,-161.82 1892.16,-160.3"/>
<polygon fill="black" stroke="black" points="1892.66,-163.77 1901.75,-158.33 1891.25,-156.91 1892.66,-163.77"/>
</g>
<!-- node_55a8b98bb660 -->
<g id="node4" class="node">
<title>node_55a8b98bb660</title>
<polygon fill="none" stroke="black" points="1698.88,-109.5 1698.88,-145.5 1867.38,-145.5 1867.38,-109.5 1698.88,-109.5"/>
<text xml:space="preserve" text-anchor="middle" x="1740.63" y="-122.7" font-family="Times,serif" font-size="14.00">data: 3.4919</text>
<polyline fill="none" stroke="black" points="1782.38,-110 1782.38,-145.5"/>
<text xml:space="preserve" text-anchor="middle" x="1824.88" y="-122.7" font-family="Times,serif" font-size="14.00">grad: 1.0000</text>
</g>
<!-- node_55a8b98bb660&#45;&gt;node_55a8b98bb6d0_op -->
<g id="edge3" class="edge">
<title>node_55a8b98bb660&#45;&gt;node_55a8b98bb6d0_op</title>
<path fill="none" stroke="black" d="M1867.7,-144.06C1876.41,-145.79 1884.77,-147.44 1892.16,-148.91"/>
<polygon fill="black" stroke="black" points="1891.26,-152.3 1901.75,-150.81 1892.62,-145.43 1891.26,-152.3"/>
</g>
<!-- node_55a8b98bb660_op -->
<g id="node5" class="node">
<title>node_55a8b98bb660_op</title>
<ellipse fill="none" stroke="black" cx="1644.88" cy="-127.5" rx="18" ry="18"/>
<text xml:space="preserve" text-anchor="middle" x="1644.88" y="-122.45" font-family="Times,serif" font-size="14.00">*</text>
</g>
<!-- node_55a8b98bb660_op&#45;&gt;node_55a8b98bb660 -->
<g id="edge4" class="edge">
<title>node_55a8b98bb660_op&#45;&gt;node_55a8b98bb660</title>
<path fill="none" stroke="black" d="M1663.13,-127.5C1669.85,-127.5 1678.11,-127.5 1687.11,-127.5"/>
<polygon fill="black" stroke="black" points="1686.89,-131 1696.89,-127.5 1686.89,-124 1686.89,-131"/>
</g>
<!-- node_55a8b98bb4e0 -->
<g id="node6" class="node">
<title>node_55a8b98bb4e0</title>
<polygon fill="none" stroke="black" points="1422.38,-137.5 1422.38,-173.5 1590.88,-173.5 1590.88,-137.5 1422.38,-137.5"/>
<text xml:space="preserve" text-anchor="middle" x="1464.13" y="-150.7" font-family="Times,serif" font-size="14.00">data: 0.9986</text>
<polyline fill="none" stroke="black" points="1505.88,-138 1505.88,-173.5"/>
<text xml:space="preserve" text-anchor="middle" x="1548.38" y="-150.7" font-family="Times,serif" font-size="14.00">grad: 3.4968</text>
</g>
<!-- node_55a8b98bb4e0&#45;&gt;node_55a8b98bb660_op -->
<g id="edge5" class="edge">
<title>node_55a8b98bb4e0&#45;&gt;node_55a8b98bb660_op</title>
<path fill="none" stroke="black" d="M1591.2,-138.33C1599.91,-136.53 1608.27,-134.82 1615.66,-133.3"/>
<polygon fill="black" stroke="black" points="1616.16,-136.77 1625.25,-131.33 1614.75,-129.91 1616.16,-136.77"/>
</g>
<!-- node_55a8b98bb460 -->
<g id="node7" class="node">
<title>node_55a8b98bb460</title>
<polygon fill="none" stroke="black" points="1422.38,-82.5 1422.38,-118.5 1590.88,-118.5 1590.88,-82.5 1422.38,-82.5"/>
<text xml:space="preserve" text-anchor="middle" x="1464.13" y="-95.7" font-family="Times,serif" font-size="14.00">data: 3.4968</text>
<polyline fill="none" stroke="black" points="1505.88,-83 1505.88,-118.5"/>
<text xml:space="preserve" text-anchor="middle" x="1548.38" y="-95.7" font-family="Times,serif" font-size="14.00">grad: 0.9986</text>
</g>
<!-- node_55a8b98bb460&#45;&gt;node_55a8b98bb660_op -->
<g id="edge6" class="edge">
<title>node_55a8b98bb460&#45;&gt;node_55a8b98bb660_op</title>
<path fill="none" stroke="black" d="M1591.2,-117.06C1599.91,-118.79 1608.27,-120.44 1615.66,-121.91"/>
<polygon fill="black" stroke="black" points="1614.76,-125.3 1625.25,-123.81 1616.12,-118.43 1614.76,-125.3"/>
</g>
<!-- node_55a8b98bb460_op -->
<g id="node8" class="node">
<title>node_55a8b98bb460_op</title>
<ellipse fill="none" stroke="black" cx="1352.94" cy="-100.5" rx="33.44" ry="33.44"/>
<text xml:space="preserve" text-anchor="middle" x="1352.94" y="-95.45" font-family="Times,serif" font-size="14.00">ReLU</text>
</g>
<!-- node_55a8b98bb460_op&#45;&gt;node_55a8b98bb460 -->
<g id="edge7" class="edge">
<title>node_55a8b98bb460_op&#45;&gt;node_55a8b98bb460</title>
<path fill="none" stroke="black" d="M1386.85,-100.5C1394.18,-100.5 1402.31,-100.5 1410.78,-100.5"/>
<polygon fill="black" stroke="black" points="1410.55,-104 1420.55,-100.5 1410.55,-97 1410.55,-104"/>
</g>
<!-- node_55a8b98bb3f0 -->
<g id="node9" class="node">
<title>node_55a8b98bb3f0</title>
<polygon fill="none" stroke="black" points="1115,-82.5 1115,-118.5 1283.5,-118.5 1283.5,-82.5 1115,-82.5"/>
<text xml:space="preserve" text-anchor="middle" x="1156.75" y="-95.7" font-family="Times,serif" font-size="14.00">data: 3.4968</text>
<polyline fill="none" stroke="black" points="1198.5,-83 1198.5,-118.5"/>
<text xml:space="preserve" text-anchor="middle" x="1241" y="-95.7" font-family="Times,serif" font-size="14.00">grad: 0.9986</text>
</g>
<!-- node_55a8b98bb3f0&#45;&gt;node_55a8b98bb460_op -->
<g id="edge8" class="edge">
<title>node_55a8b98bb3f0&#45;&gt;node_55a8b98bb460_op</title>
<path fill="none" stroke="black" d="M1283.64,-100.5C1291.86,-100.5 1299.96,-100.5 1307.56,-100.5"/>
<polygon fill="black" stroke="black" points="1307.49,-104 1317.49,-100.5 1307.49,-97 1307.49,-104"/>
</g>
<!-- node_55a8b98bb3f0_op -->
<g id="node10" class="node">
<title>node_55a8b98bb3f0_op</title>
<ellipse fill="none" stroke="black" cx="1061" cy="-100.5" rx="18" ry="18"/>
<text xml:space="preserve" text-anchor="middle" x="1061" y="-95.45" font-family="Times,serif" font-size="14.00">+</text>
</g>
<!-- node_55a8b98bb3f0_op&#45;&gt;node_55a8b98bb3f0 -->
<g id="edge9" class="edge">
<title>node_55a8b98bb3f0_op&#45;&gt;node_55a8b98bb3f0</title>
<path fill="none" stroke="black" d="M1079.26,-100.5C1085.98,-100.5 1094.23,-100.5 1103.23,-100.5"/>
<polygon fill="black" stroke="black" points="1103.01,-104 1113.01,-100.5 1103.01,-97 1103.01,-104"/>
</g>
<!-- node_55a8b98bb310 -->
<g id="node11" class="node">
<title>node_55a8b98bb310</title>
<polygon fill="none" stroke="black" points="836.25,-110.5 836.25,-146.5 1004.75,-146.5 1004.75,-110.5 836.25,-110.5"/>
<text xml:space="preserve" text-anchor="middle" x="878" y="-123.7" font-family="Times,serif" font-size="14.00">data: 4.4146</text>
<polyline fill="none" stroke="black" points="919.75,-111 919.75,-146.5"/>
<text xml:space="preserve" text-anchor="middle" x="962.25" y="-123.7" font-family="Times,serif" font-size="14.00">grad: 0.9986</text>
</g>
<!-- node_55a8b98bb310&#45;&gt;node_55a8b98bb3f0_op -->
<g id="edge10" class="edge">
<title>node_55a8b98bb310&#45;&gt;node_55a8b98bb3f0_op</title>
<path fill="none" stroke="black" d="M1004.86,-111.65C1014.45,-109.71 1023.66,-107.85 1031.72,-106.22"/>
<polygon fill="black" stroke="black" points="1032.36,-109.66 1041.47,-104.25 1030.98,-102.8 1032.36,-109.66"/>
</g>
<!-- node_55a8b98bb380 -->
<g id="node12" class="node">
<title>node_55a8b98bb380</title>
<polygon fill="none" stroke="black" points="834,-55.5 834,-91.5 1007,-91.5 1007,-55.5 834,-55.5"/>
<text xml:space="preserve" text-anchor="middle" x="878" y="-68.7" font-family="Times,serif" font-size="14.00">data: &#45;0.9178</text>
<polyline fill="none" stroke="black" points="922,-56 922,-91.5"/>
<text xml:space="preserve" text-anchor="middle" x="964.5" y="-68.7" font-family="Times,serif" font-size="14.00">grad: 0.9986</text>
</g>
<!-- node_55a8b98bb380&#45;&gt;node_55a8b98bb3f0_op -->
<g id="edge11" class="edge">
<title>node_55a8b98bb380&#45;&gt;node_55a8b98bb3f0_op</title>
<path fill="none" stroke="black" d="M1007.24,-90.22C1016,-91.92 1024.38,-93.56 1031.79,-95"/>
<polygon fill="black" stroke="black" points="1030.9,-98.39 1041.38,-96.87 1032.24,-91.52 1030.9,-98.39"/>
</g>
<!-- node_55a8b98bb380_op -->
<g id="node13" class="node">
<title>node_55a8b98bb380_op</title>
<ellipse fill="none" stroke="black" cx="780" cy="-73.5" rx="18" ry="18"/>
<text xml:space="preserve" text-anchor="middle" x="780" y="-68.45" font-family="Times,serif" font-size="14.00">*</text>
</g>
<!-- node_55a8b98bb380_op&#45;&gt;node_55a8b98bb380 -->
<g id="edge12" class="edge">
<title>node_55a8b98bb380_op&#45;&gt;node_55a8b98bb380</title>
<path fill="none" stroke="black" d="M798.26,-73.5C805.01,-73.5 813.32,-73.5 822.4,-73.5"/>
<polygon fill="black" stroke="black" points="822.28,-77 832.28,-73.5 822.28,-70 822.28,-77"/>
</g>
<!-- node_55a8b98bb070 -->
<g id="node14" class="node">
<title>node_55a8b98bb070</title>
<polygon fill="none" stroke="black" points="553,-55.5 553,-91.5 726,-91.5 726,-55.5 553,-55.5"/>
<text xml:space="preserve" text-anchor="middle" x="594.75" y="-68.7" font-family="Times,serif" font-size="14.00">data: 0.3059</text>
<polyline fill="none" stroke="black" points="636.5,-56 636.5,-91.5"/>
<text xml:space="preserve" text-anchor="middle" x="681.25" y="-68.7" font-family="Times,serif" font-size="14.00">grad: &#45;2.9958</text>
</g>
<!-- node_55a8b98bb070&#45;&gt;node_55a8b98bb380_op -->
<g id="edge13" class="edge">
<title>node_55a8b98bb070&#45;&gt;node_55a8b98bb380_op</title>
<path fill="none" stroke="black" d="M726.24,-73.5C734.89,-73.5 743.18,-73.5 750.52,-73.5"/>
<polygon fill="black" stroke="black" points="750.35,-77 760.35,-73.5 750.35,-70 750.35,-77"/>
</g>
<!-- node_55a8b98bae20 -->
<g id="node15" class="node">
<title>node_55a8b98bae20</title>
<polygon fill="none" stroke="black" points="553,-0.5 553,-36.5 726,-36.5 726,-0.5 553,-0.5"/>
<text xml:space="preserve" text-anchor="middle" x="597" y="-13.7" font-family="Times,serif" font-size="14.00">data: &#45;3.0000</text>
<polyline fill="none" stroke="black" points="641,-1 641,-36.5"/>
<text xml:space="preserve" text-anchor="middle" x="683.5" y="-13.7" font-family="Times,serif" font-size="14.00">grad: 0.3055</text>
</g>
<!-- node_55a8b98bae20&#45;&gt;node_55a8b98bb380_op -->
<g id="edge14" class="edge">
<title>node_55a8b98bae20&#45;&gt;node_55a8b98bb380_op</title>
<path fill="none" stroke="black" d="M700.73,-36.92C709.29,-39.92 717.92,-43.14 726,-46.5 735.36,-50.39 745.32,-55.26 754.06,-59.79"/>
<polygon fill="black" stroke="black" points="752.18,-62.75 762.65,-64.35 755.46,-56.57 752.18,-62.75"/>
</g>
<!-- node_55a8b98bb310_op -->
<g id="node16" class="node">
<title>node_55a8b98bb310_op</title>
<ellipse fill="none" stroke="black" cx="780" cy="-128.5" rx="18" ry="18"/>
<text xml:space="preserve" text-anchor="middle" x="780" y="-123.45" font-family="Times,serif" font-size="14.00">+</text>
</g>
<!-- node_55a8b98bb310_op&#45;&gt;node_55a8b98bb310 -->
<g id="edge15" class="edge">
<title>node_55a8b98bb310_op&#45;&gt;node_55a8b98bb310</title>
<path fill="none" stroke="black" d="M798.26,-128.5C805.53,-128.5 814.6,-128.5 824.49,-128.5"/>
<polygon fill="black" stroke="black" points="824.44,-132 834.44,-128.5 824.44,-125 824.44,-132"/>
</g>
<!-- node_55a8b98bb230 -->
<g id="node17" class="node">
<title>node_55a8b98bb230</title>
<polygon fill="none" stroke="black" points="555.25,-165.5 555.25,-201.5 723.75,-201.5 723.75,-165.5 555.25,-165.5"/>
<text xml:space="preserve" text-anchor="middle" x="597" y="-178.7" font-family="Times,serif" font-size="14.00">data: 2.5541</text>
<polyline fill="none" stroke="black" points="638.75,-166 638.75,-201.5"/>
<text xml:space="preserve" text-anchor="middle" x="681.25" y="-178.7" font-family="Times,serif" font-size="14.00">grad: 0.9986</text>
</g>
<!-- node_55a8b98bb230&#45;&gt;node_55a8b98bb310_op -->
<g id="edge16" class="edge">
<title>node_55a8b98bb230&#45;&gt;node_55a8b98bb310_op</title>
<path fill="none" stroke="black" d="M703.54,-165.02C711.18,-162.36 718.82,-159.5 726,-156.5 735.42,-152.56 745.4,-147.53 754.14,-142.82"/>
<polygon fill="black" stroke="black" points="755.67,-145.97 762.72,-138.07 752.28,-139.85 755.67,-145.97"/>
</g>
<!-- node_55a8b98bb2a0 -->
<g id="node18" class="node">
<title>node_55a8b98bb2a0</title>
<polygon fill="none" stroke="black" points="555.25,-110.5 555.25,-146.5 723.75,-146.5 723.75,-110.5 555.25,-110.5"/>
<text xml:space="preserve" text-anchor="middle" x="597" y="-123.7" font-family="Times,serif" font-size="14.00">data: 1.8605</text>
<polyline fill="none" stroke="black" points="638.75,-111 638.75,-146.5"/>
<text xml:space="preserve" text-anchor="middle" x="681.25" y="-123.7" font-family="Times,serif" font-size="14.00">grad: 0.9986</text>
</g>
<!-- node_55a8b98bb2a0&#45;&gt;node_55a8b98bb310_op -->
<g id="edge17" class="edge">
<title>node_55a8b98bb2a0&#45;&gt;node_55a8b98bb310_op</title>
<path fill="none" stroke="black" d="M723.86,-128.5C733.45,-128.5 742.66,-128.5 750.72,-128.5"/>
<polygon fill="black" stroke="black" points="750.44,-132 760.44,-128.5 750.44,-125 750.44,-132"/>
</g>
<!-- node_55a8b98bb2a0_op -->
<g id="node19" class="node">
<title>node_55a8b98bb2a0_op</title>
<ellipse fill="none" stroke="black" cx="499" cy="-128.5" rx="18" ry="18"/>
<text xml:space="preserve" text-anchor="middle" x="499" y="-123.45" font-family="Times,serif" font-size="14.00">*</text>
</g>
<!-- node_55a8b98bb2a0_op&#45;&gt;node_55a8b98bb2a0 -->
<g id="edge18" class="edge">
<title>node_55a8b98bb2a0_op&#45;&gt;node_55a8b98bb2a0</title>
<path fill="none" stroke="black" d="M517.26,-128.5C524.53,-128.5 533.6,-128.5 543.49,-128.5"/>
<polygon fill="black" stroke="black" points="543.44,-132 553.44,-128.5 543.44,-125 543.44,-132"/>
</g>
<!-- node_55a8b98bb020 -->
<g id="node20" class="node">
<title>node_55a8b98bb020</title>
<polygon fill="none" stroke="black" points="276.5,-110.5 276.5,-146.5 445,-146.5 445,-110.5 276.5,-110.5"/>
<text xml:space="preserve" text-anchor="middle" x="318.25" y="-123.7" font-family="Times,serif" font-size="14.00">data: 0.9303</text>
<polyline fill="none" stroke="black" points="360,-111 360,-146.5"/>
<text xml:space="preserve" text-anchor="middle" x="402.5" y="-123.7" font-family="Times,serif" font-size="14.00">grad: 1.9972</text>
</g>
<!-- node_55a8b98bb020&#45;&gt;node_55a8b98bb2a0_op -->
<g id="edge19" class="edge">
<title>node_55a8b98bb020&#45;&gt;node_55a8b98bb2a0_op</title>
<path fill="none" stroke="black" d="M445.32,-128.5C453.93,-128.5 462.2,-128.5 469.52,-128.5"/>
<polygon fill="black" stroke="black" points="469.34,-132 479.34,-128.5 469.34,-125 469.34,-132"/>
</g>
<!-- node_55a8b98badd0 -->
<g id="node21" class="node">
<title>node_55a8b98badd0</title>
<polygon fill="none" stroke="black" points="276.5,-55.5 276.5,-91.5 445,-91.5 445,-55.5 276.5,-55.5"/>
<text xml:space="preserve" text-anchor="middle" x="318.25" y="-68.7" font-family="Times,serif" font-size="14.00">data: 2.0000</text>
<polyline fill="none" stroke="black" points="360,-56 360,-91.5"/>
<text xml:space="preserve" text-anchor="middle" x="402.5" y="-68.7" font-family="Times,serif" font-size="14.00">grad: 0.9290</text>
</g>
<!-- node_55a8b98badd0&#45;&gt;node_55a8b98bb2a0_op -->
<g id="edge20" class="edge">
<title>node_55a8b98badd0&#45;&gt;node_55a8b98bb2a0_op</title>
<path fill="none" stroke="black" d="M419.93,-91.85C428.42,-94.88 436.99,-98.13 445,-101.5 454.34,-105.42 464.31,-110.31 473.05,-114.84"/>
<polygon fill="black" stroke="black" points="471.16,-117.8 481.64,-119.39 474.44,-111.61 471.16,-117.8"/>
</g>
<!-- node_55a8b98bb230_op -->
<g id="node22" class="node">
<title>node_55a8b98bb230_op</title>
<ellipse fill="none" stroke="black" cx="499" cy="-183.5" rx="18" ry="18"/>
<text xml:space="preserve" text-anchor="middle" x="499" y="-178.45" font-family="Times,serif" font-size="14.00">+</text>
</g>
<!-- node_55a8b98bb230_op&#45;&gt;node_55a8b98bb230 -->
<g id="edge21" class="edge">
<title>node_55a8b98bb230_op&#45;&gt;node_55a8b98bb230</title>
<path fill="none" stroke="black" d="M517.26,-183.5C524.53,-183.5 533.6,-183.5 543.49,-183.5"/>
<polygon fill="black" stroke="black" points="543.44,-187 553.44,-183.5 543.44,-180 543.44,-187"/>
</g>
<!-- node_55a8b98bb0c0 -->
<g id="node23" class="node">
<title>node_55a8b98bb0c0</title>
<polygon fill="none" stroke="black" points="276.5,-220.5 276.5,-256.5 445,-256.5 445,-220.5 276.5,-220.5"/>
<text xml:space="preserve" text-anchor="middle" x="318.25" y="-233.7" font-family="Times,serif" font-size="14.00">data: 0.7393</text>
<polyline fill="none" stroke="black" points="360,-221 360,-256.5"/>
<text xml:space="preserve" text-anchor="middle" x="402.5" y="-233.7" font-family="Times,serif" font-size="14.00">grad: 0.9986</text>
</g>
<!-- node_55a8b98bb0c0&#45;&gt;node_55a8b98bb230_op -->
<g id="edge22" class="edge">
<title>node_55a8b98bb0c0&#45;&gt;node_55a8b98bb230_op</title>
<path fill="none" stroke="black" d="M422.67,-220.09C430.26,-217.4 437.86,-214.52 445,-211.5 454.4,-207.53 464.38,-202.49 473.12,-197.78"/>
<polygon fill="black" stroke="black" points="474.65,-200.93 481.71,-193.03 471.26,-194.81 474.65,-200.93"/>
</g>
<!-- node_55a8b98bb1c0 -->
<g id="node24" class="node">
<title>node_55a8b98bb1c0</title>
<polygon fill="none" stroke="black" points="276.5,-165.5 276.5,-201.5 445,-201.5 445,-165.5 276.5,-165.5"/>
<text xml:space="preserve" text-anchor="middle" x="318.25" y="-178.7" font-family="Times,serif" font-size="14.00">data: 1.8147</text>
<polyline fill="none" stroke="black" points="360,-166 360,-201.5"/>
<text xml:space="preserve" text-anchor="middle" x="402.5" y="-178.7" font-family="Times,serif" font-size="14.00">grad: 0.9986</text>
</g>
<!-- node_55a8b98bb1c0&#45;&gt;node_55a8b98bb230_op -->
<g id="edge23" class="edge">
<title>node_55a8b98bb1c0&#45;&gt;node_55a8b98bb230_op</title>
<path fill="none" stroke="black" d="M445.32,-183.5C453.93,-183.5 462.2,-183.5 469.52,-183.5"/>
<polygon fill="black" stroke="black" points="469.34,-187 479.34,-183.5 469.34,-180 469.34,-187"/>
</g>
<!-- node_55a8b98bb1c0_op -->
<g id="node25" class="node">
<title>node_55a8b98bb1c0_op</title>
<ellipse fill="none" stroke="black" cx="222.5" cy="-183.5" rx="18" ry="18"/>
<text xml:space="preserve" text-anchor="middle" x="222.5" y="-178.45" font-family="Times,serif" font-size="14.00">*</text>
</g>
<!-- node_55a8b98bb1c0_op&#45;&gt;node_55a8b98bb1c0 -->
<g id="edge24" class="edge">
<title>node_55a8b98bb1c0_op&#45;&gt;node_55a8b98bb1c0</title>
<path fill="none" stroke="black" d="M240.76,-183.5C247.48,-183.5 255.73,-183.5 264.73,-183.5"/>
<polygon fill="black" stroke="black" points="264.51,-187 274.51,-183.5 264.51,-180 264.51,-187"/>
</g>
<!-- node_55a8b98bafd0 -->
<g id="node26" class="node">
<title>node_55a8b98bafd0</title>
<polygon fill="none" stroke="black" points="0,-193.5 0,-229.5 168.5,-229.5 168.5,-193.5 0,-193.5"/>
<text xml:space="preserve" text-anchor="middle" x="41.75" y="-206.7" font-family="Times,serif" font-size="14.00">data: 0.6049</text>
<polyline fill="none" stroke="black" points="83.5,-194 83.5,-229.5"/>
<text xml:space="preserve" text-anchor="middle" x="126" y="-206.7" font-family="Times,serif" font-size="14.00">grad: 2.9958</text>
</g>
<!-- node_55a8b98bafd0&#45;&gt;node_55a8b98bb1c0_op -->
<g id="edge25" class="edge">
<title>node_55a8b98bafd0&#45;&gt;node_55a8b98bb1c0_op</title>
<path fill="none" stroke="black" d="M168.82,-194.33C177.54,-192.53 185.9,-190.82 193.29,-189.3"/>
<polygon fill="black" stroke="black" points="193.78,-192.77 202.88,-187.33 192.38,-185.91 193.78,-192.77"/>
</g>
<!-- node_55a8b98bad80 -->
<g id="node27" class="node">
<title>node_55a8b98bad80</title>
<polygon fill="none" stroke="black" points="0,-138.5 0,-174.5 168.5,-174.5 168.5,-138.5 0,-138.5"/>
<text xml:space="preserve" text-anchor="middle" x="41.75" y="-151.7" font-family="Times,serif" font-size="14.00">data: 3.0000</text>
<polyline fill="none" stroke="black" points="83.5,-139 83.5,-174.5"/>
<text xml:space="preserve" text-anchor="middle" x="126" y="-151.7" font-family="Times,serif" font-size="14.00">grad: 0.6041</text>
</g>
<!-- node_55a8b98bad80&#45;&gt;node_55a8b98bb1c0_op -->
<g id="edge26" class="edge">
<title>node_55a8b98bad80&#45;&gt;node_55a8b98bb1c0_op</title>
<path fill="none" stroke="black" d="M168.82,-173.06C177.54,-174.79 185.9,-176.44 193.29,-177.91"/>
<polygon fill="black" stroke="black" points="192.38,-181.3 202.87,-179.81 193.74,-174.43 192.38,-181.3"/>
</g>
</g>
</svg>
